<svg width="400" height="400" viewBox="0 0 400 400" xmlns="http://www.w3.org/2000/svg">
  <!-- Pelican -->
  <g id="pelican" transform="translate(100, 100)">
    <path d="M 50 50 L 100 50 L 150 100 L 100 150 L 50 100 Z" fill="#FF69B4" />
    <path d="M 100 100 L 120 120 L 100 140 Z" fill="#FF69B4" />
    <path d="M 100 100 L 80 120 L 100 140 Z" fill="#FF69B4" />
    <path d="M 100 100 L 120 80 L 100 60 Z" fill="#FF69B4" />
    <path d="M 100 100 L 80 80 L 100 60 Z" fill="#FF69B4" />
  </g>

  <!-- Bicycle -->
  <g id="bicycle" transform="translate(150, 200)">
    <path d="M 50 50 L 100 50 L 150 100 L 100 150 L 50 100 Z" fill="#666" />
    <path d="M 100 100 L 120 120 L 100 140 Z" fill="#666" />
    <path d="M 100 100 L 80 120 L 100 140 Z" fill="#666" />
    <path d="M 100 100 L 120 80 L 100 60 Z" fill="#666" />
    <path d="M 100 100 L 80 80 L 100 60 Z" fill="#666" />
    <path d="M 100 100 L 120 120 L 100 140 L 80 120 L 100 100 Z" fill="#666" />
    <path d="M 100 100 L 120 80 L 100 60 L 80 80 L 100 100 Z" fill="#666" />
  </g>

  <!-- Pelican on bicycle -->
  <g id="pelican-on-bicycle" transform="translate(150, 200)">
    <use xlink:href="#pelican" />
  </g>
</svg>
