<svg width="200" height="200" xmlns="http://www.w3.org/2000/svg">
  <!-- Bicycle Frame -->
  <line x1="50" y1="100" x2="150" y2="100" stroke="black" stroke-width="4"/>
  <line x1="100" y1="100" x2="100" y2="150" stroke="black" stroke-width="4"/>
  <line x1="100" y1="150" x2="70" y2="180" stroke="black" stroke-width="4"/>
  <line x1="100" y1="150" x2="130" y2="180" stroke="black" stroke-width="4"/>
  
  <!-- Wheels -->
  <circle cx="70" cy="130" r="20" stroke="black" stroke-width="2" fill="none"/>
  <circle cx="130" cy="130" r="20" stroke="black" stroke-width="2" fill="none"/>
  
  <!-- Pelican -->
  <ellipse cx="110" cy="105" rx="20" ry="15" stroke="black" stroke-width="2" fill="gray"/>
  <ellipse cx="110" cy="90" rx="25" ry="15" stroke="black" stroke-width="2" fill="gray"/>
  <polygon points="110,75 125,60 135,80 120,95" stroke="black" stroke-width="2" fill="gray"/>
  <polygon points="110,75 95,60 85,80 100,95" stroke="black" stroke-width="2" fill="gray"/>
  <line x1="110" y1="105" x2="130" y2="120" stroke="black" stroke-width="2"/>
  
  <!-- Pelican's Feet -->
  <line x1="100" y1="150" x2="110" y2="160" stroke="black" stroke-width="2"/>
  <line x1="100" y1="150" x2="90" y2="160" stroke="black" stroke-width="2"/>
</svg>