<svg width="400" height="200" xmlns="http://www.w3.org/2000/svg">
  <!-- Pelican -->
  <g transform="translate(100, 50)">
    <circle cx="50" cy="50" r="20" fill="#FFFFFF" />
    <path d="M 50 50 L 60 40 L 70 50 L 60 60 Z" fill="#FFFFFF" />
    <path d="M 50 50 L 40 40 L 30 50 L 40 60 Z" fill="#FFFFFF" />
    <circle cx="50" cy="30" r="10" fill="#000000" />
    <circle cx="50" cy="70" r="10" fill="#000000" />
  </g>

  <!-- Bicycle -->
  <g transform="translate(150, 50)">
    <rect x="10" y="10" width="40" height="20" fill="#CCCCCC" rx="5" />
    <rect x="10" y="30" width="40" height="20" fill="#CCCCCC" rx="5" />
    <circle cx="20" cy="40" r="10" fill="#CCCCCC" />
    <circle cx="30" cy="40" r="10" fill="#CCCCCC" />
    <path d="M 20 40 L 30 40 L 30 50 L 20 50 Z" fill="#CCCCCC" />
  </g>

  <!-- Wheels -->
  <g transform="translate(150, 50)">
    <circle cx="20" cy="40" r="10" fill="#000000" />
    <circle cx="30" cy="40" r="10" fill="#000000" />
  </g>

  <!-- Pedals -->
  <g transform="translate(150, 50)">
    <rect x="15" y="45" width="10" height="10" fill="#CCCCCC" rx="2" />
    <rect x="25" y="45" width="10" height="10" fill="#CCCCCC" rx="2" />
  </g>

  <!-- Road -->
  <rect x="0" y="150" width="400" height="50" fill="#999999" />
</svg>
