<svg xmlns="http://www.w3.org/2000/svg" viewBox="0 0 400 400">
  <!-- Pelican -->
  <g>
    <circle cx="200" cy="150" r="50" fill="#6495ED" />
    <circle cx="200" cy="120" r="20" fill="#6495ED" />
    <circle cx="200" cy="180" r="20" fill="#6495ED" />
    <rect x="180" y="100" width="40" height="40" fill="#6495ED" rx="5" />
    <rect x="220" y="100" width="40" height="40" fill="#6495ED" rx="5" />
    <rect x="180" y="120" width="20" height="20" fill="#6495ED" rx="5" />
    <rect x="220" y="120" width="20" height="20" fill="#6495ED" rx="5" />
    <rect x="180" y="180" width="20" height="20" fill="#6495ED" rx="5" />
    <rect x="220" y="180" width="20" height="20" fill="#6495ED" rx="5" />
  </g>

  <!-- Bicycle -->
  <g transform="translate(150, 200)">
    <rect x="0" y="0" width="100" height="150" fill="#CCCCCC" rx="5" />
    <circle cx="50" cy="75" r="10" fill="#000000" />
    <circle cx="50" cy="75" r="10" fill="#000000" />
    <line x1="50" y1="75" x2="50" y2="50" stroke="#000000" stroke-width="2" />
    <line x1="50" y1="75" x2="50" y2="125" stroke="#000000" stroke-width="2" />
    <line x1="0" y1="100" x2="100" y1="100" stroke="#000000" stroke-width="2" />
    <line x1="50" y1="100" x2="50" y2="100" stroke="#000000" stroke-width="2" />
    <line x1="100" y1="100" x2="100" y2="100" stroke="#000000" stroke-width="2" />
    <line x1="50" y1="150" x2="50" y2="150" stroke="#000000" stroke-width="2" />
    <line x1="0" y1="175" x2="100" y1="175" stroke="#000000" stroke-width="2" />
  </g>

  <!-- Pelican's head -->
  <g transform="translate(200, 180)">
    <circle cx="50" cy="50" r="20" fill="#6495ED" />
    <line x1="30" y1="20" x2="30" y2="70" stroke="#000000" stroke-width="2" />
    <line x1="30" y1="20" x2="30" y2="100" stroke="#000000" stroke-width="2" />
  </g>

  <!-- Pelican's beak -->
  <g transform="translate(200, 120)">
    <line x1="30" y1="40" x2="30" y2="100" stroke="#000000" stroke-width="2" />
  </g>

  <!-- Pelican's legs -->
  <g transform="translate(200, 180)">
    <line x1="30" y1="120" x2="30" y2="170" stroke="#000000" stroke-width="2" />
    <line x1="30" y1="120" x2="30" y2="130" stroke="#000000" stroke-width="2" />
    <line x1="30" y1="170" x2="30" y2="200" stroke="#000000" stroke-width="2" />
  </g>

  <!-- Bicycle's seat -->
  <g transform="translate(250, 250)">
    <rect x="0" y="0" width="20" height="10" fill="#CCCCCC" rx="5" />
    <line x1="10" y1="5" x2="10" y2="5" stroke="#000000" stroke-width="2" />
    <line x1="10" y1="5" x2="10" y2="5" stroke="#000000" stroke-width="2" />
    <line x1="10" y1="5" x2="10" y2="5" stroke="#000000" stroke-width="2" />
  </g>
</svg>
