<svg width="400" height="400" xmlns="http://www.w3.org/2000/svg">
  <!-- Bicycle Frame -->
  <line x1="150" y1="250" x2="250" y2="250" stroke="black" stroke-width="5"/>
  <line x1="200" y1="150" x2="200" y2="250" stroke="black" stroke-width="5"/>
  <line x1="150" y1="200" x2="250" y2="200" stroke="black" stroke-width="5"/>
  <line x1="150" y1="150" x2="200" y2="150" stroke="black" stroke-width="5"/>
  <line x1="250" y1="150" x2="250" y2="200" stroke="black" stroke-width="5"/>
  <circle cx="150" cy="250" r="10" fill="black"/>
  <circle cx="250" cy="250" r="10" fill="black"/>
  <!-- Seat -->
  <rect x="190" y="150" width="20" height="20" fill="gray"/>
  <!-- Handlebars -->
  <line x1="200" y1="130" x2="200" y2="150" stroke="black" stroke-width="5"/>
  <line x1="180" y1="130" x2="220" y2="130" stroke="black" stroke-width="5"/>
  
  <!-- Pelican -->
  <ellipse cx="200" cy="180" rx="30" ry="20" fill="gray"/>
  <polygon points="170,160 200,120 230,160" fill="gray"/>
  <polygon points="170,160 185,180 215,180 230,160" fill="white"/>
  <circle cx="190" cy="170" r="3" fill="black"/>
  <line x1="200" y1="160" x2="240" y2="160" stroke="black" stroke-width="3"/>
  <polygon points="240,160 250,150 250,170" fill="black"/>
  
  <!-- Pedals -->
  <circle cx="155" cy="260" r="5" fill="black"/>
  <circle cx="245" cy="260" r="5" fill="black"/>
  
  <!-- Chain -->
  <path d="M 160 250 Q 200 270 240 250" stroke="black" stroke-width="2" fill="none"/>
</svg>