<svg width="200" height="200" xmlns="http://www.w3.org/2000/svg">
  <!-- Pelican -->
  <path d="M50,50 Q60,30 80,50 Q100,70 80,90 Q60,110 50,90 Q40,70 60,50" fill="gray" stroke="black" stroke-width="2"/>
  <path d="M50,70 Q40,90 50,110 Q60,130 80,110 Q100,90 80,70 Q60,50 50,70" fill="white" stroke="black" stroke-width="2"/>
  <polygon points="65,55 75,45 85,55" fill="orange"/>
  <path d="M70,50 L70,40" stroke="black" stroke-width="2"/>
  <path d="M70,50 L65,60" stroke="black" stroke-width="2"/>
  <path d="M70,50 L75,60" stroke="black" stroke-width="2"/>
  <path d="M70,50 L80,60" stroke="black" stroke-width="2"/>

  <!-- Bicycle -->
  <circle cx="120" cy="160" r="10" fill="black"/>
  <circle cx="60" cy="160" r="10" fill="black"/>
  <rect x="110" y="100" width="20" height="60" fill="none" stroke="black" stroke-width="2"/>
  <line x1="130" y1="100" x2="150" y2="120" stroke="black" stroke-width="2"/>
  <line x1="150" y1="120" x2="130" y2="140" stroke="black" stroke-width="2"/>
  <line x1="130" y1="140" x2="110" y2="160" stroke="black" stroke-width="2"/>
  <line x1="60" y1="100" x2="80" y2="120" stroke="black" stroke-width="2"/>
  <line x1="80" y1="120" x2="60" y2="140" stroke="black" stroke-width="2"/>
  <line x1="60" y1="140" x2="80" y2="160" stroke="black" stroke-width="2"/>
  <line x1="110" y1="100" x2="60" y2="100" stroke="black" stroke-width="2"/>
  <line x1="110" y1="160" x2="60" y2="160" stroke="black" stroke-width="2"/>
  <line x1="110" y1="130" x2="60" y2="130" stroke="black" stroke-width="2"/>
  
  <!-- Pelican's feet on pedals -->
  <circle cx="70" cy="165" r="3" fill="gray"/>
  <circle cx="120" cy="165" r="3" fill="gray"/>
</svg>