<svg width="400" height="200" viewBox="0 0 400 200" xmlns="http://www.w3.org/2000/svg">
  <!-- Background -->
  <rect x="0" y="0" width="400" height="200" fill="#87CEEB" rx="10" />

  <!-- Pelican -->
  <g transform="translate(100, 100)">
    <circle cx="50" cy="50" r="30" fill="#F5DEB3" />
    <circle cx="50" cy="50" r="20" fill="#F5DEB3" />
    <circle cx="50" cy="50" r="10" fill="#F5DEB3" />
    <path d="M 50 50 L 30 50 L 30 30 L 50 30 L 50 50" fill="#F5DEB3" />
    <path d="M 50 50 L 70 50 L 70 30 L 50 30 L 50 50" fill="#F5DEB3" />
    <path d="M 50 30 L 50 50 L 70 50 L 70 30 L 50 30" fill="#F5DEB3" />
    <path d="M 30 50 L 50 50 L 50 30 L 30 30 L 30 50" fill="#F5DEB3" />
  </g>

  <!-- Bicycle -->
  <g transform="translate(250, 100)">
    <rect x="0" y="0" width="50" height="20" fill="#FFC080" rx="5" />
    <rect x="0" y="30" width="50" height="20" fill="#FFC080" rx="5" />
    <rect x="0" y="60" width="50" height="20" fill="#FFC080" rx="5" />
    <path d="M 25 0 L 25 20 L 50 20 L 50 0" fill="#FFC080" />
    <path d="M 25 30 L 25 50 L 50 50 L 50 30" fill="#FFC080" />
    <path d="M 25 60 L 25 80 L 50 80 L 50 60" fill="#FFC080" />
    <path d="M 25 0 L 50 0 L 50 20 L 25 20" fill="#FFC080" />
    <path d="M 25 30 L 50 30 L 50 50 L 25 50" fill="#FFC080" />
    <path d="M 25 60 L 50 60 L 50 80 L 25 80" fill="#FFC080" />
  </g>

  <!-- Pedals -->
  <circle cx="270" cy="100" r="10" fill="#F5DEB3" />
  <circle cx="270" cy="130" r="10" fill="#F5DEB3" />

  <!-- Wheel -->
  <circle cx="280" cy="90" r="30" fill="#F5DEB3" />
  <circle cx="280" cy="110" r="30" fill="#F5DEB3" />

  <!-- Handlebars -->
  <path d="M 260 80 L 280 80 L 280 100 L 260 100 L 260 80" fill="#F5DEB3" />
  <path d="M 260 80 L 280 80 L 280 100 L 260 100 L 260 80" fill="#F5DEB3" />
</svg>
