<svg width="400" height="400" viewBox="0 0 400 400" xmlns="http://www.w3.org/2000/svg">
  <!-- Background -->
  <rect x="0" y="0" width="400" height="400" fill="#87CEEB" rx="10" />

  <!-- Bicycle -->
  <g transform="translate(150, 250)">
    <ellipse cx="0" cy="20" rx="80" ry="20" fill="#964B00" />
    <rect x="-50" y="-10" width="100" height="40" fill="#964B00" rx="10" />
    <ellipse cx="0" cy="0" rx="30" ry="10" fill="#964B00" />
    <ellipse cx="0" cy="40" rx="20" ry="10" fill="#964B00" />
    <line x1="-50" y1="0" x2="50" y2="0" stroke="#964B00" stroke-width="5" />
    <line x1="-50" y1="-10" x2="-50" y2="10" stroke="#964B00" stroke-width="5" />
    <line x1="50" y1="-10" x2="50" y2="10" stroke="#964B00" stroke-width="5" />
  </g>

  <!-- Pelican -->
  <g transform="translate(180, 220)">
    <ellipse cx="0" cy="0" rx="60" ry="40" fill="#FFD700" />
    <ellipse cx="0" cy="-40" rx="30" ry="20" fill="#FFD700" />
    <ellipse cx="0" cy="80" rx="30" ry="20" fill="#FFD700" />
    <rect x="-30" y="-20" width="60" height="40" fill="#FFD700" rx="10" />
    <line x1="-20" y1="0" x2="20" y2="0" stroke="#FFD700" stroke-width="5" />
    <line x1="-10" y1="0" x2="-10" y2="20" stroke="#FFD700" stroke-width="5" />
    <line x1="10" y1="0" x2="10" y2="20" stroke="#FFD700" stroke-width="5" />
  </g>

  <!-- Wheels -->
  <g transform="translate(120, 250)">
    <circle cx="0" cy="0" r="40" fill="#964B00" />
  </g>
  <g transform="translate(180, 250)">
    <circle cx="0" cy="0" r="40" fill="#964B00" />
  </g>

  <!-- Legs -->
  <g transform="translate(140, 270)">
    <line x1="0" y1="0" x2="0" y2="30" stroke="#964B00" stroke-width="5" />
  </g>
  <g transform="translate(170, 270)">
    <line x1="0" y1="0" x2="0" y2="30" stroke="#964B00" stroke-width="5" />
  </g>
</svg>
