<svg width="500" height="500" viewBox="0 0 500 500" fill="none" xmlns="http://www.w3.org/2000/svg"> <!-- Bicycle --> <circle cx="250" cy="400" r="60" fill="#C0C0C0"/> <!-- Wheel --> <circle cx="400" cy="400" r="60" fill="#C0C0C0"/> <!-- Wheel --> <line x1="250" y1="400" x2="400" y2="400" stroke="black" stroke-width="10"/> <path d="M300,300 C300,340 350,340 350,300" stroke="black" stroke-width="10" fill="transparent"/> <line x1="325" y1="320" x2="325" y2="400" stroke="black" stroke-width="10"/> <line x1="325" y1="360" x2="370" y2="400" stroke="black" stroke-width="10"/> <path d="M370,400 L380,390 L400,410 L390,410 L370,400" fill="black"/> <!-- Pelican --> <path d="M200,250 C200,200 350,200 350,250 C350,300 300,300 280,300 C260,300 200,300 200,250 Z" fill="#FFFFFF" stroke="black" stroke-width="2"/> <circle cx="245" cy="230" r="10" fill="black"/> <!-- Eye --> <circle cx="305" cy="230" r="10" fill="black"/> <!-- Eye --> <path d="M200,240 Q250,260 300,240" fill="transparent" stroke="black" stroke-width="3"/> <!-- Beak --> <path d="M250,300 C250,320 300,320 300,300" fill="#FFFFFF" stroke="black" stroke-width="2"/> <!-- Neck --> <path d="M250,300 Q275,330 300,300" fill="transparent" stroke="black" stroke-width="2"/> <!-- Wing --> <path d="M200,250 L170,280 L180,290 L200,260 L200,250" fill="black"/> <!-- Feet --> <path d="M350,250 L380,280 L370,290 L350,260 L350,250" fill="black"/> <!-- Feet --> <!-- Pelican on bike --> <path d="M300,300 L250,300" stroke="black" stroke-width="10" fill="transparent"/> <!-- Handlebar connection --> <line x1="250" y1="300" x2="230" y2="310" stroke="black" stroke-width="10"/> <!-- Handlebar --> <line x1="230" y1="310" x2="220" y2="305" stroke="black" stroke-width="5"/> <!-- Handlebar end --> </svg>

