<svg width="500" height="300" viewBox="0 0 500 300" xmlns="http://www.w3.org/2000/svg">
  <!-- Background -->
  <rect x="0" y="0" width="500" height="300" fill="#87CEEB" />

  <!-- Pelican -->
  <g transform="translate(200, 100)">
    <!-- Body -->
    <ellipse cx="0" cy="0" rx="50" ry="30" fill="#FFFFFF" />
    <!-- Beak -->
    <polygon points="-20,0 -40,-20 0,-40 20,0" fill="#FFD700" />
    <!-- Head -->
    <circle cx="0" cy="-40" r="20" fill="#FFFFFF" />
    <!-- Legs -->
    <line x1="0" y1="50" x2="-20" y2="70" stroke="#000000" stroke-width="5" />
    <line x1="0" y1="50" x2="20" y2="70" stroke="#000000" stroke-width="5" />
  </g>

  <!-- Bicycle -->
  <g transform="translate(250, 150)">
    <!-- Frame -->
    <rect x="-50" y="-20" width="100" height="40" fill="#FF0000" />
    <!-- Wheels -->
    <circle cx="-30" cy="20" r="20" fill="#000000" />
    <circle cx="30" cy="20" r="20" fill="#000000" />
    <!-- Pedals -->
    <circle cx="-20" cy="30" r="5" fill="#000000" />
    <circle cx="20" cy="30" r="5" fill="#000000" />
    <!-- Seat -->
    <rect x="-20" y="-30" width="40" height="10" fill="#000000" />
  </g>

  <!-- Pelican on bicycle -->
  <line x1="200" y1="100" x2="250" y2="150" stroke="#000000" stroke-width="5" />
  <line x1="250" y1="150" x2="200" y2="200" stroke="#000000" stroke-width="5" />
</svg>
