<svg width="400" height="400" xmlns="http://www.w3.org/2000/svg">
  <!-- Pelican -->
  <ellipse cx="150" cy="150" rx="30" ry="40" fill="gray" />
  <polygon points="150,110 180,80 210,110" fill="gray" />
  <polygon points="150,150 120,200 180,200" fill="gray" />
  <circle cx="160" cy="130" r="10" fill="yellow" />
  <polygon points="160,130 170,110 180,130" fill="yellow" />
  
  <!-- Bicycle -->
  <line x1="150" y1="200" x2="250" y2="200" stroke="black" stroke-width="5" />
  <line x1="200" y1="200" x2="200" y2="250" stroke="black" stroke-width="5" />
  <line x1="200" y1="250" x2="250" y2="250" stroke="black" stroke-width="5" />
  <line x1="250" y1="250" x2="250" y2="300" stroke="black" stroke-width="5" />
  <line x1="150" y1="200" x2="150" y2="250" stroke="black" stroke-width="5" />
  <line x1="150" y1="250" x2="200" y2="250" stroke="black" stroke-width="5" />
  <circle cx="175" cy="225" r="25" fill="white" stroke="black" stroke-width="3" />
  <circle cx="225" cy="275" r="25" fill="white" stroke="black" stroke-width="3" />
  
  <!-- Seat -->
  <rect x="220" y="180" width="30" height="20" fill="black" />
  <line x1="220" y1="200" x2="250" y2="200" stroke="black" stroke-width="3" />
</svg>
