<svg width="400" height="300" viewBox="0 0 400 300" fill="none" stroke="black" stroke-width="2">
  <!-- Pelican -->
  <path d="M 100 100 C 120 120 140 140 160 160" fill="#F7F7F7" stroke="#000" stroke-width="2" />
  <path d="M 160 160 C 180 180 200 200 220 220" fill="#F7F7F7" stroke="#000" stroke-width="2" />
  <path d="M 220 220 C 240 240 260 260 280 280" fill="#F7F7F7" stroke="#000" stroke-width="2" />
  <path d="M 280 280 C 300 300 320 320 340 340" fill="#F7F7F7" stroke="#000" stroke-width="2" />
  <path d="M 340 340 C 360 360 380 380 400 400" fill="#F7F7F7" stroke="#000" stroke-width="2" />
  <circle cx="200" cy="200" r="20" fill="#F7F7F7" stroke="#000" stroke-width="2" />
  <circle cx="220" cy="220" r="10" fill="#F7F7F7" stroke="#000" stroke-width="2" />
  <path d="M 200 200 L 220 220" stroke="#000" stroke-width="2" />
  <path d="M 220 220 L 240 240" stroke="#000" stroke-width="2" />
  <path d="M 240 240 L 260 260" stroke="#000" stroke-width="2" />
  <path d="M 260 260 L 280 280" stroke="#000" stroke-width="2" />
  <path d="M 280 280 L 300 300" stroke="#000" stroke-width="2" />
  <path d="M 300 300 L 320 320" stroke="#000" stroke-width="2" />
  <path d="M 320 320 L 340 340" stroke="#000" stroke-width="2" />
  <path d="M 340 340 L 360 360" stroke="#000" stroke-width="2" />
  <path d="M 360 360 L 380 380" stroke="#000" stroke-width="2" />
  <path d="M 380 380 L 400 400" stroke="#000" stroke-width="2" />
  <!-- Bicycle -->
  <rect x="50" y="150" width="100" height="50" fill="#CCCCCC" stroke="#000" stroke-width="2" />
  <rect x="150" y="150" width="100" height="50" fill="#CCCCCC" stroke="#000" stroke-width="2" />
  <rect x="250" y="150" width="100" height="50" fill="#CCCCCC" stroke="#000" stroke-width="2" />
  <circle cx="150" cy="200" r="20" fill="#CCCCCC" stroke="#000" stroke-width="2" />
  <circle cx="250" cy="200" r="20" fill="#CCCCCC" stroke="#000" stroke-width="2" />
  <path d="M 150 200 L 250 200" stroke="#000" stroke-width="2" />
  <path d="M 150 220 L 250 220" stroke="#000" stroke-width="2" />
  <path d="M 150 240 L 250 240" stroke="#000" stroke-width="2" />
  <!-- Wheels -->
  <circle cx="100" cy="250" r="30" fill="#CCCCCC" stroke="#000" stroke-width="2" />
  <circle cx="300" cy="250" r="30" fill="#CCCCCC" stroke="#000" stroke-width="2" />
  <!-- Pedals -->
  <rect x="120" y="280" width="20" height="20" fill="#CCCCCC" stroke="#000" stroke-width="2" />
  <rect x="280" y="280" width="20" height="20" fill="#CCCCCC" stroke="#000" stroke-width="2" />
  <!-- Chain -->
  <path d="M 150 260 L 250 260" stroke="#000" stroke-width="2" />
</svg>
